<svg xmlns="http://www.w3.org/2000/svg" viewBox="0 0 747.97 773.85"><defs><style>.cls-1,.cls-13{fill:#ed1c24;}.cls-1,.cls-10,.cls-11,.cls-13,.cls-14,.cls-15,.cls-2{stroke:#231f20;}.cls-1,.cls-10,.cls-11,.cls-13,.cls-14,.cls-15,.cls-2,.cls-5,.cls-6{stroke-miterlimit:10;}.cls-1{stroke-width:0.5px;}.cls-2,.cls-8{fill:#f8981d;}.cls-10,.cls-11,.cls-13,.cls-14,.cls-15,.cls-2,.cls-5,.cls-6{stroke-width:0.25px;}.cls-11,.cls-3{fill:#fff;}.cls-4{fill:#c6ad2e;}.cls-5,.cls-6{fill:#f4d912;}.cls-5{stroke:#fbb040;}.cls-6{stroke:#f7941d;}.cls-7{fill:#030407;}.cls-10,.cls-9{fill:#0f1941;}.cls-12{fill:#b8bed1;}.cls-14{fill:#ad1f24;}.cls-15{fill:#234091;}</style></defs><title>Fichier 1</title><g id="Calque_2" data-name="Calque 2"><g id="Calque_1-2" data-name="Calque 1"><path class="cls-1" d="M263.75,215.45a16.53,16.53,0,0,0-1.64-7.11c-.32-1.23-.5-2.44-.85-3.67-.35.37-.81.61-1.17,1-10.68-13.11-42.86-10.76-74.72,6.24a132,132,0,0,0-26.71,18.77,155,155,0,0,1-57.05-24.52C42.85,165.17,22.3,94.45,55.53,48A71.7,71.7,0,0,0,28.15,61.51C-17,98.13-6.23,184,52.14,253.36s142.26,95.88,187.38,59.26C265,292,272.36,255.62,263.75,215.45Z"/><path class="cls-1" d="M515.67,242.87a16.28,16.28,0,0,1,.27-7c.08-1.23,0-2.4.14-3.64.39.29.86.44,1.26.73,7.62-14.3,38-17.58,70.62-6.85a125.1,125.1,0,0,1,28.16,13.28,144.75,144.75,0,0,0,48.76-33.1c47.46-49,54.12-119.81,15-158.35a67.34,67.34,0,0,1,27.86,8.2c48.43,27.1,53.57,110.65,11.48,186.61S603.77,358.27,555.34,331.16C528,315.88,514.74,282.56,515.67,242.87Z"/><rect class="cls-2" x="226.2" y="134.36" width="363.37" height="551.21" rx="7.37" ry="7.37"/><path class="cls-3" d="M303,314a43.47,43.47,0,1,0,81.83,29.32Z"/><circle cx="342.49" cy="343.5" r="9.49"/><path class="cls-3" d="M430.52,345.43a43.57,43.57,0,0,0,83.15-25.08Z"/><circle cx="463.08" cy="346.68" r="9.49"/><path class="cls-4" d="M575,158.32a7.93,7.93,0,0,0,.17-.87c-.16-16.86-55.81-30-124.29-29.35-52.44.5-97.09,9-115.12,20.45-49.31-18.6-87.29-45.19-104-73.26-25.86,18.15-42.86,42.55-46.24,71.26-8.61,73.06,73.25,145.75,182.84,162.36s205.4-29.15,214-102.21C584.32,190.34,581.47,174,575,158.32Z"/><rect class="cls-5" x="534.65" y="233.25" width="60.56" height="122.92" rx="1.23" ry="1.23"/><path class="cls-6" d="M631.68,104.61a8.67,8.67,0,0,0,.24-1c0-20.41-75.59-37-168.84-37-71.39,0-132.3,9.71-157,23.42C239.2,67,187.83,34.33,165.47.17c-35.45,21.67-58.9,51-63.88,85.7C88.93,174.19,199.43,263.1,348.4,284.47s280-32.9,292.69-121.21C643.93,143.47,640.27,123.69,631.68,104.61Z"/><rect class="cls-5" x="202.07" y="220.58" width="60.56" height="122.92" rx="1.23" ry="1.23"/><polygon class="cls-3" points="384.73 423.01 393.71 414.03 393.71 405.28 374.21 405.28 374.21 412.49 384.73 423.01"/><polygon class="cls-3" points="435.51 424.05 445.55 414.01 445.55 407.85 426.04 407.85 426.04 414.58 435.51 424.05"/><rect class="cls-7" x="361.29" y="388.35" width="97.29" height="19.5" rx="0.4" ry="0.4"/><rect class="cls-8" x="437.97" y="469.81" width="31.24" height="31.24" transform="translate(1117.58 507.95) rotate(135)"/><rect class="cls-9" x="287.27" y="601.4" width="61.08" height="162.18" rx="1.24" ry="1.24"/><rect class="cls-9" x="484.1" y="601.4" width="61.08" height="162.18" rx="1.24" ry="1.24"/><rect x="287.59" y="736.92" width="60.76" height="36.93"/><rect x="484.25" y="736.92" width="60.76" height="36.93"/><path class="cls-2" d="M136.1,578.82a30,30,0,1,0,42.46,42.46l3.33-3.33-42.46-42.46Z"/><path class="cls-10" d="M268.56,488.82a30.11,30.11,0,0,0-42.46,0l-67.62,67.62,42.46,42.46,67.62-67.62A30.11,30.11,0,0,0,268.56,488.82Z"/><rect class="cls-11" x="156.72" y="557.17" width="26.95" height="60.05" transform="translate(-365.36 292.33) rotate(-45)"/><path class="cls-2" d="M650.24,622.67a30,30,0,1,0,42.46-42.46l-3.33-3.33L646.9,619.34Z"/><path class="cls-10" d="M560.23,490.21a30.11,30.11,0,0,0,0,42.46l67.62,67.62,42.46-42.46-67.62-67.62A30.11,30.11,0,0,0,560.23,490.21Z"/><rect class="cls-11" x="628.58" y="575.11" width="60.05" height="26.95" transform="translate(-223.29 638.1) rotate(-45)"/><rect class="cls-10" x="226.83" y="469.15" width="366.2" height="220.52"/><rect class="cls-12" x="351.98" y="467.45" width="127.24" height="222.23"/><polygon class="cls-3" points="607.2 484.55 600.4 440.41 412.9 469.28 223.09 423.74 212.67 467.16 404.5 513.19 409.07 494.14 412.22 514.57 607.2 484.55"/><ellipse class="cls-13" cx="415.6" cy="598.9" rx="18.22" ry="79.32"/><rect class="cls-14" x="394.04" y="488.54" width="43.11" height="36.89" rx="0.75" ry="0.75" transform="translate(-91.38 922.59) rotate(-90)"/><path class="cls-15" d="M372.91,585.15,351.9,501a20.5,20.5,0,0,0-16-15l-112.65-65-22.07,38.22,114.48,66.1,17.44,69.86a20.53,20.53,0,0,0,39.84-9.94Z"/><path class="cls-15" d="M613.36,474.31,593.1,435.1,483.89,491.53l3,5.79a20.36,20.36,0,0,0-7.95,12.82l-14.6,85.5a20.53,20.53,0,0,0,40.47,6.91l13.51-79.13Z"/></g></g></svg>