<svg xmlns="http://www.w3.org/2000/svg" viewBox="0 0 768.61 897.27"><defs><style>.cls-1,.cls-5{fill:#b47a2b;}.cls-1,.cls-11,.cls-3,.cls-6,.cls-7,.cls-8,.cls-9{stroke:#231f20;stroke-miterlimit:10;}.cls-1,.cls-11,.cls-6,.cls-7,.cls-8,.cls-9{stroke-width:6px;}.cls-2{fill:#875622;}.cls-3,.cls-4{fill:#fff;}.cls-6{fill:#7a7b31;}.cls-7{fill:#bebf32;}.cls-8{fill:#dce026;}.cls-9{fill:#f9f9fa;}.cls-10{fill:#8e5c25;}.cls-11{fill:#fcfaf7;}</style></defs><title>Fichier 1</title><g id="Calque_2" data-name="Calque 2"><g id="Calque_1-2" data-name="Calque 1"><rect class="cls-1" x="257.05" y="688.56" width="55.49" height="205.71" rx="0.48" ry="0.48"/><rect class="cls-1" x="476.6" y="688.56" width="55.49" height="205.71" rx="0.48" ry="0.48"/><rect class="cls-1" x="152.83" y="556.65" width="54.66" height="194.92" rx="0.59" ry="0.59" transform="translate(515.3 64.19) rotate(45)"/><rect class="cls-2" x="231.76" y="301.6" width="333.5" height="24.89" rx="0.27" ry="0.27" transform="translate(-23.06 31.71) rotate(-4.43)"/><rect class="cls-1" x="214.37" y="219.91" width="368.26" height="582.78" rx="4" ry="4"/><circle class="cls-3" cx="338.49" cy="380.93" r="45.81"/><circle cx="353.5" cy="388" r="7.06" transform="translate(-170.19 352.57) rotate(-43.79)"/><circle class="cls-4" cx="454.21" cy="376.62" r="50.13"/><circle cx="438.13" cy="388" r="7.06" transform="translate(-146.65 411.14) rotate(-43.79)"/><path d="M637.33,373.62c13.58,5,21.94,11.32,22.43,18.76,1.37,20.77-57.25,41.55-130.93,46.41-59.79,3.94-110.53-3.92-128.49-18.08-.79,1.38-.63,2.8-1.1,4.19-.53-2.37-.85-4.75-2.35-7-17,15.32-67.16,26.52-127.12,26.52-73.9,0-133.8-16.89-133.8-37.72,0-7.45,7.92-14.36,21.16-20.21-42.62,9-70.84,24.31-70.84,41.8,0,27.66,70.31,50.08,157,50.08,80.66,0,146.35-19.47,155.25-44.43,6.19,26,75.25,42.49,158.85,37,86.48-5.7,155.1-32.69,153.29-60.26C709.55,393.2,680.41,379.74,637.33,373.62Z"/><circle class="cls-5" cx="497.93" cy="495.51"/><path class="cls-6" d="M741.84,181.35A26.89,26.89,0,0,0,713.6,156l-5.09.28C678.4,170.54,540.86,187.56,375,196.63S70.63,203.8,39.17,192.94l-.36,0A26.9,26.9,0,0,0,13.5,221.2l.55,10.07a26.89,26.89,0,0,0,28.24,25.31l674.8-36.92a26.89,26.89,0,0,0,25.31-28.24Z"/><ellipse class="cls-7" cx="429.49" cy="140.44" rx="66.52" ry="132.19" transform="translate(-22.35 135.48) rotate(-17.48)"/><path class="cls-8" d="M456.78,256.67,450.46,140.4C444.25,60.32,394.14-1.09,338.52,3.21,284,7.44,244.7,73.34,249,151.36l-.48,0,6.33,116.28,40.69-2.21C314.37,284.19,337,295,361,293.18c22.83-1.77,42.76-14.73,58.23-34.47Z"/><text></text><rect class="cls-9" x="170.77" y="565.36" width="58.45" height="141.2" transform="translate(508.27 44.85) rotate(45)"/><rect class="cls-1" x="584.24" y="563.42" width="54.66" height="194.92" rx="0.59" ry="0.59" transform="translate(-288.18 626.02) rotate(-45)"/><rect class="cls-9" x="564.2" y="570.45" width="58.45" height="141.2" transform="translate(-279.48 607.37) rotate(-45)"/><rect class="cls-9" x="257.05" y="784.58" width="55.38" height="61.86"/><rect class="cls-10" x="239.65" y="300.4" width="307.97" height="21.57" transform="translate(-14.73 19.6) rotate(-2.8)"/><rect class="cls-9" x="476.6" y="787.82" width="55.38" height="55.38"/><polygon class="cls-11" points="440.05 496.59 440.05 500.37 409.91 589.16 374.96 495.5 212.22 495.5 212.22 590.42 212.22 806.52 587.2 806.52 587.2 591.51 587.2 590.42 587.2 496.59 440.05 496.59"/><rect x="542.6" y="293.39" width="65.89" height="133.36" rx="20.94" ry="20.94"/><rect x="188.52" y="311.18" width="68.53" height="115.56" rx="21.22" ry="21.22"/><path class="cls-8" d="M744.27,171.17a26.32,26.32,0,0,1-22.66,18.26L54.41,249.27a26.33,26.33,0,0,1-28.49-23.8L23.8,201.94a70.19,70.19,0,0,0,53.1,120l621.63-30.2a70.18,70.18,0,0,0,45.73-120.52Z"/></g></g></svg>